{"glyphs":{"0":{"ha":713,"x_min":0,"x_max":0,"o":"m 356 974 b 689 487 540 974 689 756 b 356 0 689 218 540 0 b 22 487 172 0 22 218 b 356 974 22 756 172 974 m 356 236 b 444 487 404 236 444 348 b 356 739 444 626 404 739 b 268 487 307 739 268 626 b 356 236 268 348 307 236 "},"1":{"ha":539,"x_min":0,"x_max":0,"o":"m 42 727 l 42 972 l 499 972 l 499 727 m 252 0 l 252 671 l 499 671 l 499 0 "},"2":{"ha":700,"x_min":0,"x_max":0,"o":"m 671 551 l 461 247 l 671 247 l 671 0 l 3 0 l 4 0 l -1 0 l 382 551 m 671 636 l 671 606 l 425 606 l 425 636 l 426 636 b 338 724 426 685 386 724 b 250 636 289 724 250 685 l 250 636 l 250 606 l 4 606 l 4 636 l 4 636 b 338 970 4 821 153 970 b 671 636 522 970 671 821 "},"3":{"ha":710,"x_min":0,"x_max":0,"o":"m 24 724 l 24 970 l 604 970 l 604 724 m 689 364 l 691 364 l 691 334 b 357 0 691 149 542 0 l 357 0 l 327 0 l 327 2 b 24 334 157 17 24 160 l 24 334 l 24 364 l 270 364 l 270 334 l 269 334 b 348 246 269 288 304 251 l 357 246 l 357 246 b 445 334 406 246 445 285 l 445 334 l 445 344 b 357 422 439 388 402 422 l 357 421 l 327 421 l 327 423 l 187 423 l 327 625 l 357 667 l 357 667 l 357 667 b 679 423 511 667 640 564 b 689 364 684 404 688 385 "},"4":{"ha":735,"x_min":0,"x_max":0,"o":"m 692 972 l 692 0 l 445 0 l 445 972 m 25 669 l 25 972 l 271 972 l 271 669 m 25 424 l 25 669 l 390 669 l 390 424 "},"5":{"ha":722,"x_min":0,"x_max":0,"o":"m 283 667 l 36 667 l 36 970 l 617 970 l 617 724 l 283 724 m 704 364 l 704 334 b 370 0 704 149 554 0 l 370 0 l 339 0 l 339 2 b 36 334 169 17 36 160 l 36 334 l 36 364 l 283 364 l 283 334 l 282 334 b 360 246 282 288 316 251 l 370 246 l 370 246 b 458 334 418 246 458 285 l 457 334 l 457 344 b 370 422 452 388 415 422 l 370 422 l 370 421 l 339 421 l 339 422 l 36 422 l 36 667 l 369 667 l 369 667 l 370 667 l 370 667 l 401 667 l 401 666 b 691 423 540 653 655 554 b 702 364 697 404 700 385 "},"6":{"ha":713,"x_min":0,"x_max":0,"o":"m 702 364 l 702 334 b 369 0 702 149 553 0 l 369 0 l 338 0 l 338 2 b 37 298 180 16 54 140 l 35 298 l 35 667 l 368 667 l 368 667 l 369 667 l 369 667 l 400 667 l 400 666 b 690 423 539 653 653 554 b 701 364 695 404 699 385 m 369 246 b 456 334 417 246 456 285 l 456 334 l 456 344 b 369 422 450 388 413 422 l 369 422 l 369 421 l 338 421 l 338 422 l 281 422 l 281 324 b 359 246 286 283 318 251 l 369 246 l 369 246 m 35 722 l 35 970 l 281 970 l 281 722 "},"7":{"ha":718,"x_min":0,"x_max":0,"o":"m 10 726 l 10 972 l 590 972 l 590 726 m 677 669 l 292 0 l 10 0 l 396 669 "},"8":{"ha":724,"x_min":0,"x_max":0,"o":"m 695 364 l 695 334 b 362 0 695 149 546 0 l 362 0 l 331 0 l 331 2 b 28 334 161 17 28 160 l 28 334 l 28 364 l 188 364 b 40 559 117 408 63 477 b 29 619 35 578 31 598 l 28 619 l 28 649 b 361 983 28 833 177 983 l 361 983 l 392 983 l 392 981 b 695 649 562 966 695 823 l 695 649 l 695 619 l 535 619 b 683 423 606 575 660 506 b 694 364 688 404 692 385 m 418 266 b 450 335 438 282 450 307 b 361 424 450 384 411 424 b 273 335 312 424 273 384 b 322 255 273 300 293 270 b 323 255 323 255 323 255 b 329 252 325 254 327 253 b 333 251 330 252 331 251 b 336 250 334 250 335 250 b 352 246 341 248 346 247 l 353 246 b 361 246 356 246 359 246 b 362 246 362 246 362 246 l 362 246 b 418 266 383 246 403 253 m 362 560 b 451 649 411 560 451 600 b 362 738 451 698 411 738 b 273 649 313 738 273 698 b 362 560 273 600 313 560 "},"9":{"ha":711,"x_min":0,"x_max":0,"o":"m 676 673 l 676 303 l 343 303 l 343 303 l 342 303 l 342 303 l 311 303 l 311 304 b 21 547 171 317 57 416 b 10 606 15 566 12 586 l 8 606 l 8 636 b 342 970 8 821 158 970 l 342 970 l 372 970 l 372 969 b 674 673 530 954 657 830 m 429 636 l 429 646 b 352 724 425 687 393 719 l 342 724 l 342 724 b 254 636 293 724 254 685 l 255 636 l 255 626 b 342 549 260 582 297 549 l 342 549 l 342 549 l 372 549 l 372 549 l 429 549 l 429 636 m 429 0 l 429 248 l 676 248 l 676 0 "},"\u0000":{"ha":0,"x_min":0,"x_max":0,"o":""},"\n":{"ha":0,"x_min":0,"x_max":0,"o":""},"\r":{"ha":0,"x_min":0,"x_max":0,"o":""}," ":{"ha":401,"x_min":0,"x_max":0,"o":""},"!":{"ha":329,"x_min":0,"x_max":0,"o":"m 165 0 b 42 123 97 0 42 55 b 165 246 42 191 97 246 b 288 123 233 246 288 191 b 165 0 288 55 233 0 m 288 246 l 42 246 l 42 971 l 288 971 "},"'":{"ha":300,"x_min":0,"x_max":0,"o":"m 125 1161 b 287 982 216 1153 287 1076 b 151 808 287 898 229 827 b 140 806 147 807 144 806 b 139 806 140 806 139 806 b 109 835 122 806 109 819 b 122 860 109 846 114 855 b 126 862 123 861 125 861 b 139 887 134 868 139 877 b 110 917 139 903 126 916 b 108 917 109 917 108 917 b 108 917 108 917 108 917 b -15 1040 40 917 -15 972 b 91 1161 -15 1102 31 1153 b 108 1163 96 1162 102 1163 b 125 1161 113 1163 119 1162 "},",":{"ha":296,"x_min":0,"x_max":0,"o":"m 238 162 b 226 -79 296 92 292 -13 b 6 -106 167 -139 75 -148 b -3 -100 3 -105 0 -103 b -4 -99 -3 -100 -3 -100 b -4 -57 -15 -88 -15 -69 b 23 -49 3 -50 13 -47 b 27 -50 24 -49 26 -50 b 54 -42 37 -52 47 -49 b 54 0 65 -30 65 -12 b 53 1 54 0 53 1 b 53 1 53 1 53 1 b 53 175 5 49 5 127 b 214 186 97 219 166 223 b 227 175 218 183 223 179 b 238 162 231 171 234 167 "},"-":{"ha":458,"x_min":0,"x_max":0,"o":"m 18 306 l 18 493 l 440 493 l 440 306 "},".":{"ha":281,"x_min":0,"x_max":0,"o":"m 140 0 b 17 123 72 0 17 55 b 140 246 17 191 72 246 b 263 123 208 246 263 191 b 140 0 263 55 208 0 "},":":{"ha":297,"x_min":0,"x_max":0,"o":"m 235 395 b 61 395 187 347 109 347 b 61 569 13 443 13 521 b 235 569 109 617 187 617 b 235 395 283 521 283 443 m 168 2 b 27 103 101 -9 37 36 b 128 244 16 170 61 234 b 269 143 195 255 259 210 b 168 2 280 76 235 12 "},";":{"ha":310,"x_min":0,"x_max":0,"o":"m 146 324 b 23 447 78 324 23 379 b 146 570 23 515 78 570 b 269 447 214 570 269 515 b 146 324 269 379 214 324 m 247 162 b 236 -79 306 92 302 -13 b 16 -106 176 -139 85 -148 b 7 -100 13 -105 10 -103 b 6 -99 7 -100 6 -100 b 6 -57 -6 -88 -6 -69 b 32 -49 13 -50 23 -47 b 37 -50 34 -49 35 -50 b 63 -42 46 -52 56 -49 b 64 0 75 -30 75 -12 b 62 1 63 0 63 1 b 62 1 62 1 62 1 b 62 175 14 49 14 127 b 223 186 106 219 175 223 b 236 175 228 183 232 179 b 247 162 240 171 244 167 "},"?":{"ha":808,"x_min":0,"x_max":0,"o":"m 432 3 b 284 95 366 -12 300 29 b 376 243 269 161 310 227 b 524 151 442 258 508 217 b 432 3 539 85 498 19 m 404 971 b 767 609 604 971 766 809 b 404 246 767 409 604 246 b 317 257 374 246 345 250 l 317 522 b 402 488 339 501 369 488 b 525 611 470 488 525 543 b 402 734 525 679 470 734 b 279 611 334 734 279 679 b 279 605 279 609 279 607 l 42 605 b 42 609 42 606 42 608 b 404 971 42 809 204 971 "},"A":{"ha":721,"x_min":0,"x_max":0,"o":"m 678 871 l 678 0 l 432 0 l 432 142 l 260 142 l 260 0 l 14 0 l 14 353 b 678 972 38 699 326 972 l 678 871 m 432 353 l 432 647 b 260 353 338 579 274 474 "},"B":{"ha":729,"x_min":0,"x_max":0,"o":"m 647 489 b 708 306 685 438 708 374 b 402 0 708 137 571 0 b 402 0 402 0 402 0 l 402 0 l 42 0 l 42 975 l 369 975 b 402 977 380 977 391 977 b 707 672 571 977 707 840 b 647 489 707 603 685 540 m 288 611 l 397 611 b 402 611 399 611 400 611 b 404 611 403 611 403 611 b 463 672 437 612 463 639 b 402 732 463 705 435 732 l 288 732 m 402 245 b 463 306 436 245 463 272 b 404 366 463 338 437 365 b 402 366 403 366 403 366 l 402 366 l 288 366 l 288 245 l 402 245 b 402 245 402 245 402 245 "},"C":{"ha":481,"x_min":0,"x_max":0,"o":"m 464 0 b 7 485 209 15 7 226 b 464 970 7 744 209 955 l 464 723 b 253 485 345 709 253 608 b 464 247 253 363 345 262 "},"D":{"ha":785,"x_min":0,"x_max":0,"o":"m 291 972 b 777 486 559 972 777 755 b 291 0 777 218 559 0 b 288 0 290 0 289 0 l 288 0 l 42 0 l 42 972 l 288 972 l 288 972 b 291 972 289 972 290 972 m 291 246 b 531 486 423 246 531 354 b 291 726 531 619 423 726 b 288 726 290 726 289 726 l 288 246 b 291 246 289 246 290 246 "},"E":{"ha":624,"x_min":0,"x_max":0,"o":"m 288 726 l 288 609 l 498 609 l 498 363 l 288 363 l 288 246 l 602 246 l 602 0 l 42 0 l 42 972 l 604 972 l 604 726 "},"F":{"ha":603,"x_min":0,"x_max":0,"o":"m 287 0 l 42 0 l 42 972 l 604 972 l 604 726 l 288 726 l 288 609 l 498 609 l 498 363 l 288 363 l 288 314 l 287 314 "},"G":{"ha":726,"x_min":0,"x_max":0,"o":"m 710 487 l 710 0 l 464 0 l 464 2 b 7 487 209 17 7 228 b 493 973 7 755 225 973 b 587 964 525 973 557 970 l 587 708 b 493 727 558 720 526 727 b 253 487 361 727 253 619 b 464 249 253 364 345 263 l 464 487 "},"H":{"ha":751,"x_min":0,"x_max":0,"o":"m 710 972 l 710 0 l 463 0 l 463 381 l 288 381 l 288 0 l 42 0 l 42 972 l 288 972 l 288 591 l 463 591 l 463 972 "},"I":{"ha":331,"x_min":0,"x_max":0,"o":"m 42 0 l 42 972 l 288 972 l 288 0 "},"J":{"ha":693,"x_min":0,"x_max":0,"o":"m 660 970 l 660 334 l 660 334 b 327 0 660 149 511 0 b -7 334 143 0 -7 149 l -7 334 l -7 364 l 239 364 l 239 334 l 239 334 b 327 246 239 285 278 246 b 415 334 375 246 415 285 l 414 334 l 414 970 "},"K":{"ha":753,"x_min":0,"x_max":0,"o":"m 478 0 l 290 326 l 290 0 l 42 0 l 42 972 l 288 972 l 288 823 b 543 951 362 883 448 927 b 547 953 544 952 546 952 b 573 959 556 955 565 957 b 575 959 574 959 575 959 b 605 964 585 961 595 963 b 609 965 606 964 607 965 b 637 968 618 966 627 967 b 642 969 639 969 640 969 b 671 971 651 970 661 971 b 675 971 672 971 673 971 b 708 972 686 972 697 972 l 708 871 l 708 871 l 708 727 b 461 647 616 727 530 697 b 413 606 444 634 428 620 l 761 2 "},"L":{"ha":492,"x_min":0,"x_max":0,"o":"m 499 1 l 288 1 l 288 0 l 42 0 l 42 972 l 288 972 l 288 247 l 499 247 "},"M":{"ha":1083,"x_min":0,"x_max":0,"o":"m 1041 972 l 1041 0 l 795 0 l 795 744 b 655 605 718 744 655 682 l 655 0 l 428 0 l 428 605 b 288 744 428 682 365 744 l 288 0 l 42 0 l 42 972 l 288 972 b 542 871 386 972 476 934 b 795 972 607 934 697 972 "},"N":{"ha":750,"x_min":0,"x_max":0,"o":"m 708 972 l 708 0 l 460 0 l 460 353 b 288 647 446 474 382 579 l 288 0 l 42 0 l 42 871 l 42 871 l 42 972 b 461 823 201 972 347 916 l 461 972 "},"O":{"ha":986,"x_min":0,"x_max":0,"o":"m 493 972 b 979 486 762 972 979 755 b 493 0 979 218 762 0 b 7 486 225 0 7 218 b 493 972 7 755 225 972 m 493 246 b 733 486 626 246 733 354 b 493 726 733 619 626 726 b 253 486 361 726 253 619 b 493 246 253 354 361 246 "},"P":{"ha":657,"x_min":0,"x_max":0,"o":"m 288 972 b 655 605 491 972 655 808 b 288 238 655 402 491 238 l 288 0 l 42 0 l 42 972 l 288 972 m 288 484 b 409 605 355 484 409 538 b 288 726 409 672 355 726 l 288 484 "},"Q":{"ha":1007,"x_min":0,"x_max":0,"o":"m 994 15 b 994 13 994 14 994 13 l 994 13 l 994 -104 l 747 -104 l 747 13 l 747 13 b 747 15 747 13 747 14 b 736 66 747 33 743 51 b 493 1 664 25 581 1 b 7 487 225 1 7 219 b 493 973 7 756 225 973 b 979 487 762 973 979 756 b 914 243 979 398 955 315 b 994 15 964 181 994 101 m 253 487 b 493 247 253 355 361 247 b 557 256 515 247 536 250 l 500 313 l 674 487 l 727 434 b 733 487 731 451 733 469 b 493 727 733 620 626 727 b 253 487 361 727 253 620 "},"R":{"ha":678,"x_min":0,"x_max":0,"o":"m 563 362 b 655 119 621 297 655 212 b 655 117 655 118 655 117 l 655 117 l 655 0 l 409 0 l 409 117 l 409 117 b 409 119 409 117 409 118 b 307 238 409 179 365 229 b 288 238 301 238 294 238 l 288 0 l 42 0 l 42 972 l 288 972 b 655 605 491 972 655 808 b 563 362 655 512 621 427 m 288 486 b 307 486 294 486 301 486 b 409 605 365 495 409 545 b 288 726 409 672 355 726 "},"S":{"ha":633,"x_min":0,"x_max":0,"o":"m 570 479 b 627 303 606 429 627 369 b 324 0 627 136 491 0 l 21 0 l 21 240 l 324 240 b 327 240 325 240 326 240 b 388 300 361 240 388 267 b 327 360 388 333 361 360 l 327 360 b 119 446 246 361 173 394 b 82 486 106 458 93 472 b 21 669 44 537 21 600 b 322 972 21 836 156 971 b 324 972 323 972 323 972 l 521 972 l 521 726 l 332 726 b 328 726 331 726 329 726 b 322 726 326 726 324 726 b 268 666 291 723 268 697 b 323 606 268 634 292 609 b 324 606 323 606 324 606 b 330 606 326 606 328 606 b 566 486 426 604 511 557 b 570 479 567 484 569 481 "},"T":{"ha":653,"x_min":0,"x_max":0,"o":"m 660 726 l 450 726 l 450 0 l 203 0 l 203 726 l -7 726 l -7 972 l 660 972 "},"U":{"ha":732,"x_min":0,"x_max":0,"o":"m 699 970 l 699 334 l 699 334 b 366 0 699 149 550 0 b 32 334 181 0 32 149 l 32 334 l 32 970 l 278 970 l 278 334 l 278 334 b 366 246 278 285 317 246 b 454 334 414 246 454 285 l 453 334 l 453 970 "},"V":{"ha":721,"x_min":0,"x_max":0,"o":"m 706 972 l 706 620 b 42 0 682 273 394 0 l 42 101 l 42 101 l 42 972 l 288 972 l 288 325 b 460 620 382 393 446 498 l 460 972 "},"W":{"ha":1153,"x_min":0,"x_max":0,"o":"m 1120 970 l 1120 334 l 1120 334 b 787 0 1120 149 971 0 b 576 75 707 0 634 28 b 366 0 519 28 445 0 b 32 334 181 0 32 149 l 32 334 l 32 970 l 278 970 l 278 334 l 278 334 b 366 246 278 285 317 246 b 453 328 412 246 450 282 b 453 334 453 330 453 332 l 453 334 l 453 970 l 699 970 l 699 334 l 699 334 b 699 328 699 332 699 330 b 787 246 702 282 740 246 b 875 334 835 246 875 285 l 874 334 l 874 970 "},"X":{"ha":660,"x_min":0,"x_max":0,"o":"m 453 486 l 663 0 l 417 0 l 330 202 l 242 0 l -4 0 l 206 486 l -4 972 l 242 972 l 330 770 l 417 972 l 663 972 "},"Y":{"ha":644,"x_min":0,"x_max":0,"o":"m 663 972 l 242 0 l -4 0 l 207 486 l 206 486 l -4 972 l 242 972 l 330 770 l 417 972 "},"Z":{"ha":679,"x_min":0,"x_max":0,"o":"m 673 972 l 359 247 l 673 247 l 673 1 l 252 1 l 252 0 l 6 0 l 6 1 l 6 1 l 113 247 l 321 728 l 6 726 l 6 972 l 673 972 l 673 972 "},"_":{"ha":704,"x_min":0,"x_max":0,"o":"m 18 0 l 18 188 l 685 188 l 685 0 "}," ":{"ha":401,"x_min":0,"x_max":0,"o":""},"­":{"ha":0,"x_min":0,"x_max":0,"o":""},"À":{"ha":721,"x_min":0,"x_max":0,"o":"m 678 972 l 678 871 l 678 871 l 678 0 l 432 0 l 432 142 l 260 142 l 260 0 l 14 0 l 14 353 b 678 972 38 699 326 972 m 432 647 b 260 353 338 579 274 474 l 432 353 m 433 1022 l 222 1325 l 468 1325 l 679 1022 "},"È":{"ha":624,"x_min":0,"x_max":0,"o":"m 288 726 l 288 609 l 498 609 l 498 363 l 288 363 l 288 246 l 602 246 l 602 0 l 42 0 l 42 972 l 604 972 l 604 726 m 252 1022 l 42 1325 l 288 1325 l 499 1022 "},"É":{"ha":624,"x_min":0,"x_max":0,"o":"m 288 726 l 288 609 l 498 609 l 498 363 l 288 363 l 288 246 l 602 246 l 602 0 l 42 0 l 42 972 l 604 972 l 604 726 m 288 1022 l 42 1022 l 252 1325 l 499 1325 "},"Ì":{"ha":331,"x_min":0,"x_max":0,"o":"m 41 1024 l -169 1327 l 77 1327 l 288 1024 m 41 0 l 41 972 l 288 972 l 288 0 "},"Ò":{"ha":986,"x_min":0,"x_max":0,"o":"m 376 1024 l 166 1327 l 412 1327 l 623 1024 m 493 972 b 979 486 762 972 979 755 b 493 0 979 218 762 0 b 7 486 225 0 7 218 b 493 972 7 755 225 972 m 493 246 b 733 486 626 246 733 354 b 493 726 733 619 626 726 b 253 486 361 726 253 619 b 493 246 253 354 361 246 "},"Ù":{"ha":732,"x_min":0,"x_max":0,"o":"m 250 1023 l 39 1325 l 285 1325 l 496 1023 m 699 970 l 699 334 l 699 334 b 366 0 699 149 550 0 b 32 334 181 0 32 149 l 32 334 l 32 970 l 278 970 l 278 334 l 278 334 b 366 246 278 285 317 246 b 454 334 414 246 454 285 l 453 334 l 453 970 "},"":{"ha":703,"x_min":0,"x_max":0,"o":"m 617 283 b 689 246 633 261 660 246 l 689 0 b 654 2 678 0 666 1 b 397 173 543 14 448 80 b 395 177 396 174 396 176 b 307 240 378 210 345 234 b 288 239 301 240 294 239 l 288 2 l 42 2 l 42 974 l 288 974 b 651 665 471 974 623 840 b 655 607 654 646 655 627 b 563 364 655 514 621 429 b 608 301 580 345 595 324 b 617 283 611 295 614 289 m 307 488 b 409 607 365 497 409 546 b 288 728 409 674 355 728 l 288 488 b 307 488 294 488 301 488 "},"":{"ha":1140,"x_min":0,"x_max":0,"o":"m 1126 972 l 1126 620 b 461 0 1102 273 814 0 l 461 101 l 461 101 l 461 149 b 42 0 347 56 201 0 l 42 101 l 42 101 l 42 972 l 288 972 l 288 325 b 460 620 382 393 446 498 l 460 972 l 706 972 l 706 972 l 708 972 l 708 325 b 879 620 801 393 866 498 l 879 972 "},"":{"ha":1219,"x_min":0,"x_max":0,"o":"m 461 248 l 756 248 l 756 0 l 461 0 l 461 0 b 7 485 208 17 7 227 b 464 970 7 744 209 955 l 464 723 b 253 485 345 709 253 608 b 461 248 253 363 344 263 m 1177 972 l 1177 0 l 931 0 l 931 380 l 756 380 l 756 289 l 509 289 l 509 972 l 756 972 l 756 590 l 931 590 l 931 972 "},"":{"ha":799,"x_min":0,"x_max":0,"o":"m 756 248 l 756 0 l 461 0 l 461 0 b 7 485 208 17 7 227 b 464 970 7 744 209 955 l 464 723 b 253 485 345 709 253 608 b 461 248 253 363 344 263 l 461 248 m 509 289 l 509 972 l 756 972 l 756 289 "},"":{"ha":835,"x_min":0,"x_max":0,"o":"m 288 609 l 498 609 l 498 363 l 288 363 l 288 314 l 287 314 l 287 0 l 42 0 l 42 972 l 793 972 l 793 727 l 604 727 l 604 726 l 288 726 m 546 0 l 546 684 l 793 684 l 793 0 "},"":{"ha":621,"x_min":0,"x_max":0,"o":"m 332 290 l 332 974 l 578 974 l 578 290 m 578 248 l 578 0 l 303 0 l 303 2 l 288 2 l 288 1 l 42 1 l 42 973 l 288 973 l 288 248 "},"":{"ha":1031,"x_min":0,"x_max":0,"o":"m 288 248 l 998 248 l 998 2 l 505 2 l 505 0 l 364 0 l 364 1 l 288 1 l 288 0 l 42 0 l 42 972 l 288 972 m 998 972 l 998 622 l 998 622 b 665 289 998 438 849 289 b 331 622 480 289 331 438 l 331 622 l 331 972 l 577 972 l 577 622 l 577 622 b 665 534 577 574 616 534 b 753 622 713 534 753 574 l 752 622 l 752 972 "},"":{"ha":1110,"x_min":0,"x_max":0,"o":"m 1095 972 l 1095 620 b 678 48 1077 359 910 140 b 450 0 608 19 531 3 l 432 0 l 432 142 l 260 142 l 260 0 l 14 0 l 14 353 b 431 925 32 613 199 832 b 659 972 502 953 578 969 b 678 972 665 972 672 972 l 678 871 l 678 871 l 678 326 b 849 620 771 394 835 499 l 849 972 m 431 353 l 431 646 b 260 353 338 578 274 473 "},"":{"ha":1397,"x_min":0,"x_max":0,"o":"m 617 283 b 689 246 633 261 660 246 l 1372 246 l 1372 0 l 689 0 b 654 2 678 0 666 1 b 397 173 543 14 448 80 b 395 177 396 174 396 176 b 307 240 378 210 345 234 b 288 239 301 240 294 239 l 288 2 l 42 2 l 42 974 l 288 974 b 651 665 471 974 623 840 b 655 607 654 646 655 627 b 563 364 655 514 621 429 b 608 301 580 345 595 324 b 617 283 611 295 614 289 m 307 488 b 409 607 365 497 409 546 b 288 728 409 674 355 728 l 288 488 b 307 488 294 488 301 488 m 1032 290 b 688 634 843 290 688 444 b 1032 977 688 823 843 977 b 1376 634 1221 977 1376 823 b 1032 290 1376 444 1221 290 m 1032 731 b 935 634 978 731 935 687 b 1032 537 935 580 978 537 b 1129 634 1086 537 1129 580 b 1032 731 1129 687 1086 731 "},"":{"ha":1403,"x_min":0,"x_max":0,"o":"m 1372 246 l 1372 0 l 689 0 b 654 2 678 0 666 1 b 397 173 543 14 448 80 b 395 177 396 174 396 176 b 307 240 378 210 345 234 b 288 239 301 240 294 239 l 288 2 l 42 2 l 42 974 l 288 974 b 651 665 471 974 623 840 b 655 607 654 646 655 627 b 563 364 655 514 621 429 b 608 301 580 345 595 324 b 617 283 611 295 614 289 b 689 246 633 261 660 246 m 307 488 b 409 607 365 497 409 546 b 288 728 409 674 355 728 l 288 488 b 307 488 294 488 301 488 m 1032 290 b 698 624 848 290 698 440 l 698 624 l 698 974 l 945 974 l 945 624 l 944 624 b 1032 536 944 575 983 536 b 1120 624 1081 536 1120 575 l 1119 624 l 1119 974 l 1366 974 l 1366 624 l 1366 624 b 1032 290 1366 440 1216 290 "},"":{"ha":1110,"x_min":0,"x_max":0,"o":"m 1116 972 l 1116 726 l 906 726 l 906 0 l 659 0 l 659 726 l 450 726 l 450 0 l 203 0 l 203 726 l -7 726 l -7 972 "},"":{"ha":1297,"x_min":0,"x_max":0,"o":"m 961 727 l 961 610 l 1171 610 l 1171 364 l 961 364 l 961 247 l 1275 247 l 1275 1 l 1083 1 l 1083 0 l 689 0 b 654 2 678 0 666 1 b 397 173 543 14 448 80 b 395 177 396 174 396 176 b 307 240 378 210 345 234 b 288 239 301 240 294 239 l 288 2 l 42 2 l 42 974 l 288 974 b 651 665 471 974 623 840 b 655 607 654 646 655 627 b 563 364 655 514 621 429 b 608 301 580 345 595 324 b 617 283 611 295 614 289 b 689 246 633 261 660 246 l 714 246 l 714 973 l 1277 973 l 1277 727 m 307 488 b 409 607 365 497 409 546 b 288 728 409 674 355 728 l 288 488 b 307 488 294 488 301 488 "},"":{"ha":1050,"x_min":0,"x_max":0,"o":"m 665 289 b 321 632 475 289 321 443 b 665 976 321 822 475 976 b 1008 632 854 976 1008 822 b 665 289 1008 443 854 289 m 665 730 b 567 632 611 730 567 686 b 665 535 567 579 611 535 b 762 632 718 535 762 579 b 665 730 762 686 718 730 m 288 248 l 998 248 l 998 2 l 505 2 l 505 0 l 364 0 l 364 1 l 288 1 l 288 0 l 42 0 l 42 972 l 288 972 "}}}
